# xmcd CD database file
#
# Track frame offsets:
#	150
#	16650
#	32225
#	47375
#	63825
#	75712
#	92962
#	109200
#	123312
#	152412
#	166487
#	174770
#	186925
#	203350
#	212412
#	226600
#
# Disc length: 3250 seconds
#
# Revision: 0
# Processed by: cddbd v1.5.1PL0 Copyright (c) Steve Scherf et al.
# Submitted via: CDex 1.50
#
DISCID=b50cb010
DTITLE=宗次郎 - こころのうた・八 憧
DYEAR=1991
DGENRE=New Age
TTITLE0=夢路より
TTITLE1=ローレライ
TTITLE2=愛の喜び
TTITLE3=歌の翼に
TTITLE4=追憶
TTITLE5=眠りの精
TTITLE6=シューベルトの子守唄
TTITLE7=モーツァルトの子守唄
TTITLE8=家路
TTITLE9=野ばら
TTITLE10=ブラームスの子守唄
TTITLE11=アヴェ・マリア
TTITLE12=アヴェ・マリア
TTITLE13=星の界
TTITLE14=まき人羊を
TTITLE15=聖夜(きよしこの夜)
EXTD=YEAR: 1991
EXTT0=
EXTT1=
EXTT2=
EXTT3=
EXTT4=
EXTT5=
EXTT6=
EXTT7=
EXTT8=
EXTT9=
EXTT10=
EXTT11=
EXTT12=
EXTT13=
EXTT14=
EXTT15=
PLAYORDER=
